<svg xmlns="http://www.w3.org/2000/svg" width="63.81" height="35" viewBox="0 0 63.81 35"><rect class="svg__rect" x="0" y="0" width="63.81" height="35" fill="#EA4560"/><rect class="svg__rect" x="63.81" y="0" width="0" height="35" fill="#389AD5"/><path class="svg__text" d="M13.78 19.42L13.78 19.42L15.27 19.42Q15.27 20.15 15.75 20.55Q16.23 20.95 17.12 20.95L17.12 20.95Q17.90 20.95 18.29 20.63Q18.68 20.32 18.68 19.80L18.68 19.80Q18.68 19.24 18.28 18.94Q17.89 18.63 16.85 18.32Q15.82 18.01 15.21 17.63L15.21 17.63Q14.05 16.90 14.05 15.72L14.05 15.72Q14.05 14.69 14.89 14.02Q15.73 13.35 17.07 13.35L17.07 13.35Q17.96 13.35 18.66 13.68Q19.36 14.01 19.75 14.61Q20.15 15.22 20.15 15.96L20.15 15.96L18.68 15.96Q18.68 15.29 18.26 14.91Q17.84 14.54 17.06 14.54L17.06 14.54Q16.33 14.54 15.93 14.85Q15.53 15.16 15.53 15.71L15.53 15.71Q15.53 16.18 15.96 16.50Q16.40 16.81 17.39 17.10Q18.39 17.40 18.99 17.78Q19.60 18.16 19.88 18.65Q20.16 19.13 20.16 19.79L20.16 19.79Q20.16 20.86 19.34 21.49Q18.52 22.12 17.12 22.12L17.12 22.12Q16.20 22.12 15.42 21.77Q14.64 21.43 14.21 20.83Q13.78 20.22 13.78 19.42ZM25.23 22L23.69 22L26.91 13.47L28.24 13.47L31.47 22L29.92 22L29.22 20.01L25.92 20.01L25.23 22ZM27.57 15.28L26.33 18.82L28.81 18.82L27.57 15.28ZM34.99 19.42L34.99 19.42L36.47 19.42Q36.47 20.15 36.95 20.55Q37.43 20.95 38.33 20.95L38.33 20.95Q39.10 20.95 39.49 20.63Q39.88 20.32 39.88 19.80L39.88 19.80Q39.88 19.24 39.49 18.94Q39.09 18.63 38.06 18.32Q37.03 18.01 36.42 17.63L36.42 17.63Q35.25 16.90 35.25 15.72L35.25 15.72Q35.25 14.69 36.09 14.02Q36.93 13.35 38.28 13.35L38.28 13.35Q39.17 13.35 39.86 13.68Q40.56 14.01 40.96 14.61Q41.36 15.22 41.36 15.96L41.36 15.96L39.88 15.96Q39.88 15.29 39.46 14.91Q39.04 14.54 38.26 14.54L38.26 14.54Q37.54 14.54 37.14 14.85Q36.73 15.16 36.73 15.71L36.73 15.71Q36.73 16.18 37.17 16.50Q37.60 16.81 38.60 17.10Q39.59 17.40 40.20 17.78Q40.80 18.16 41.08 18.65Q41.36 19.13 41.36 19.79L41.36 19.79Q41.36 20.86 40.55 21.49Q39.73 22.12 38.33 22.12L38.33 22.12Q37.40 22.12 36.63 21.77Q35.85 21.43 35.42 20.83Q34.99 20.22 34.99 19.42ZM45.22 19.42L45.22 19.42L46.70 19.42Q46.70 20.15 47.18 20.55Q47.66 20.95 48.56 20.95L48.56 20.95Q49.33 20.95 49.72 20.63Q50.11 20.32 50.11 19.80L50.11 19.80Q50.11 19.24 49.72 18.94Q49.32 18.63 48.29 18.32Q47.26 18.01 46.65 17.63L46.65 17.63Q45.48 16.90 45.48 15.72L45.48 15.72Q45.48 14.69 46.32 14.02Q47.16 13.35 48.51 13.35L48.51 13.35Q49.40 13.35 50.09 13.68Q50.79 14.01 51.19 14.61Q51.59 15.22 51.59 15.96L51.59 15.96L50.11 15.96Q50.11 15.29 49.69 14.91Q49.27 14.54 48.49 14.54L48.49 14.54Q47.77 14.54 47.37 14.85Q46.97 15.16 46.97 15.71L46.97 15.71Q46.97 16.18 47.40 16.50Q47.83 16.81 48.83 17.10Q49.82 17.40 50.43 17.78Q51.03 18.16 51.31 18.65Q51.59 19.13 51.59 19.79L51.59 19.79Q51.59 20.86 50.78 21.49Q49.96 22.12 48.56 22.12L48.56 22.12Q47.63 22.12 46.86 21.77Q46.08 21.43 45.65 20.83Q45.22 20.22 45.22 19.42Z" fill="#FFFFFF"/><path class="svg__text" d="" fill="#FFFFFF" x="76.81"/></svg>